<?xml version="1.0" encoding="utf-8"?>
<!-- Generator: Adobe Illustrator 26.0.1, SVG Export Plug-In . SVG Version: 6.00 Build 0)  -->
<svg version="1.1" xmlns="http://www.w3.org/2000/svg" xmlns:xlink="http://www.w3.org/1999/xlink" x="0px" y="0px"
	 viewBox="0 0 895.8 251.9" style="enable-background:new 0 0 895.8 251.9;" xml:space="preserve">
<style type="text/css">
	.st0{fill:#eee295;}
	.st1{fill:#e2ba52;}
	.st2{fill:#c49939;}
	.st3{fill:#424655;}
</style>
<g id="circle_1">
</g>
<g id="circle_2">
</g>
<g id="circle_3">
</g>
<g id="text">
	<path id="circle-1" class="st0" d="M41.9,25.2c41-35.6,136.6-28.6,167.6-9.3c52.8,27.9,113.3,110.2,90,159.8s-76,74.5-113.3,76
		C149,253.4,31.1,234.7,7.8,157.2S18.6,45.4,41.9,25.2z"/>
	<path id="circle-2" class="st1" d="M67,46.3c31.9-31.9,67.8-22.6,99.7-8s58.5,43.9,50.5,78.4c-8,34.6-46.5,73.1-83.7,73.1
		s-87.7-38.5-90.4-75.8C40.4,76.9,67,46.3,67,46.3z"/>
	<path id="circle-3" class="st2" d="M84.7,65c18.3-19,77.1-10.6,82.4,30.6c5.3,41.2-18.6,70.4-63.8,62.5S52.8,98.2,84.7,65z"/>
	<g id="text_00000161616862826474372630000001356327461239278484_">
		<g>
			<path class="st3" d="M255.9,146.9V20.2h29.6v100.6h43.2v26H255.9z"/>
			<path class="st3" d="M375.1,149.3c-7.2,0-13.8-1.8-19.7-5.4c-5.9-3.6-10.6-8.6-14-14.9c-3.5-6.3-5.2-13.5-5.2-21.6
				c0-7.9,1.7-15,5-21.2c3.3-6.3,7.9-11.2,13.7-14.9c5.9-3.7,12.6-5.5,20.2-5.5c5,0,9.8,0.8,14.2,2.5c4.5,1.7,8.2,4.1,11.4,7.1v-7.2
				h28v78.6h-28v-8.1c-3.7,3.5-7.7,6.1-12,7.9C384.4,148.4,379.9,149.3,375.1,149.3z M383.6,125.6c3.4,0,6.5-0.8,9.2-2.4
				c2.7-1.6,4.8-3.7,6.3-6.4c1.5-2.7,2.2-5.8,2.2-9.2c0-3.5-0.8-6.6-2.3-9.3s-3.6-4.8-6.3-6.4c-2.6-1.6-5.7-2.4-9.1-2.4
				c-3.4,0-6.4,0.8-9.1,2.4c-2.7,1.6-4.8,3.7-6.4,6.4c-1.6,2.7-2.3,5.8-2.3,9.2c0,3.4,0.8,6.5,2.3,9.2c1.5,2.7,3.6,4.9,6.3,6.4
				C377.1,124.8,380.2,125.6,383.6,125.6z"/>
			<path class="st3" d="M454.5,146.9V68.2h28v8c3.3-3.2,7.3-5.8,11.8-7.6c4.6-1.9,9.4-2.8,14.5-2.8c6,0,11.3,1.3,16,4
				c4.7,2.7,8.3,6.3,11.1,11c2.7,4.6,4.1,10,4.1,16.1v50h-28v-43.9c0-4.8-1.3-8.5-4-11.2c-2.6-2.7-6.2-4.1-10.7-4.1
				c-3,0-5.6,0.6-7.8,1.8c-2.2,1.2-3.9,2.9-5.1,5.1c-1.2,2.1-1.8,4.7-1.8,7.5v44.8H454.5z"/>
			<path class="st3" d="M593.1,149.3c-8.5,0-15.2-2.7-19.9-8.1c-4.7-5.4-7.1-12.8-7.1-22.4V89.5h-11.5V68.2h11.5V38.8h27.9v29.5
				h16.4v21.3h-16.4v27.2c0,2.5,0.5,4.4,1.5,5.7c1,1.3,2.5,1.9,4.4,1.9c2.3,0,4.5-0.8,6.7-2.5l7.1,22.4c-3,1.6-6.3,2.9-10,3.8
				C600.1,148.9,596.6,149.3,593.1,149.3z"/>
			<path class="st3" d="M670.6,149.3c-8.6,0-16.3-1.8-23.1-5.5c-6.9-3.7-12.3-8.7-16.2-15c-4-6.3-5.9-13.4-5.9-21.3
				c0-5.8,1.1-11.3,3.4-16.4s5.4-9.5,9.4-13.3c4-3.8,8.8-6.8,14.2-8.9c5.4-2.1,11.3-3.1,17.6-3.1c8.1,0,15.3,1.7,21.5,5.1
				c6.2,3.4,11,8.1,14.4,14.2c3.5,6,5.2,13.1,5.3,21.2c0,0.6,0,1.2-0.1,1.8c0,0.6-0.1,1.7-0.2,3.4h-56.6c0,3.2,0.7,5.9,2.2,8.3
				c1.5,2.4,3.6,4.2,6.3,5.5c2.7,1.3,6,2,9.6,2c3.4,0,6.4-0.6,9-1.9s5.3-3.5,8.1-6.5l20.1,10c-3.7,6.5-9,11.6-15.9,15.2
				S679.1,149.3,670.6,149.3z M655.1,97.3h28.6c-0.5-2.6-1.3-4.7-2.6-6.5c-1.3-1.7-2.9-3.1-4.8-4c-2-0.9-4.3-1.4-7-1.4
				c-2.8,0-5.2,0.5-7.3,1.4c-2,0.9-3.7,2.3-4.8,4C655.9,92.6,655.3,94.8,655.1,97.3z"/>
			<path class="st3" d="M730.3,146.9V68.2h28v11.1c3.1-4.3,6.8-7.6,11.1-10c4.3-2.4,8.8-3.6,13.6-3.6c2.9,0,6,0.5,9.1,1.4
				c3.2,0.9,5.8,2.1,7.9,3.6l-11.7,23.6c-1.8-1.4-4-2.5-6.5-3.2c-2.5-0.8-4.7-1.1-6.8-1.1c-2.9,0-5.6,0.7-8.2,2.2s-4.7,3.4-6.3,5.8
				c-1.6,2.4-2.4,5-2.4,7.7v41.1H730.3z"/>
			<path class="st3" d="M810.4,146.9V68.2h28v8c3.3-3.2,7.3-5.8,11.8-7.6c4.6-1.9,9.4-2.8,14.5-2.8c6,0,11.3,1.3,16,4
				c4.7,2.7,8.3,6.3,11.1,11c2.7,4.6,4.1,10,4.1,16.1v50h-28v-43.9c0-4.8-1.3-8.5-4-11.2c-2.6-2.7-6.2-4.1-10.7-4.1
				c-3,0-5.6,0.6-7.8,1.8c-2.2,1.2-3.9,2.9-5.1,5.1c-1.2,2.1-1.8,4.7-1.8,7.5v44.8H810.4z"/>
		</g>
		<g>
			<path class="st3" d="M297.3,214.6c0,8.4-6.2,13.3-18.6,13.3h-22.8v-49.6h21.4c11.1,0,17.4,4.7,17.4,12.8c0,5.7-3,9.4-7.6,11.3
				C293.5,203.7,297.3,207.9,297.3,214.6z M261.1,182.6v18h15.8c7.9,0,12.5-3,12.5-9s-4.6-9-12.5-9H261.1z M292.1,214.2
				c0-6.5-4.8-9.3-13.5-9.3h-17.5v18.6h17.5C287.3,223.6,292.1,220.7,292.1,214.2z"/>
			<path class="st3" d="M341.9,210.8h-31.2c0.6,7.8,6.5,13,14.7,13c4.5,0,8.6-1.6,11.4-4.9l2.8,3.3c-3.3,4-8.5,6.1-14.4,6.1
				c-11.6,0-19.6-7.9-19.6-19s7.7-18.9,18.2-18.9c10.5,0,18.1,7.7,18.1,18.9C342,209.7,341.9,210.2,341.9,210.8z M310.7,207h26.4
				c-0.6-7.3-6-12.4-13.3-12.4C316.7,194.6,311.4,199.7,310.7,207z"/>
			<path class="st3" d="M387.9,206.3v21.6h-5v-21.1c0-7.9-4.1-11.9-11.2-11.9c-8,0-13,5-13,13.5v19.6h-5v-52.6h5v21.8
				c2.8-4.3,7.7-6.8,14-6.8C381.6,190.3,387.9,195.6,387.9,206.3z"/>
			<path class="st3" d="M430.9,204.8v23.1h-4.8v-5.8c-2.3,3.8-6.7,6.2-12.8,6.2c-8.4,0-13.6-4.4-13.6-10.8c0-5.7,3.7-10.6,14.4-10.6
				h11.8v-2.3c0-6.4-3.6-9.9-10.6-9.9c-4.8,0-9.4,1.7-12.4,4.4l-2.3-3.8c3.8-3.2,9.3-5,15.2-5C425.5,190.3,430.9,195.1,430.9,204.8z
				 M425.9,216.7v-6.1h-11.7c-7.2,0-9.6,2.8-9.6,6.7c0,4.3,3.5,7,9.4,7C419.7,224.3,423.9,221.6,425.9,216.7z"/>
			<path class="st3" d="M476.5,190.6l-16.6,37.3h-5.2l-16.5-37.3h5.2l14,31.8l14.1-31.8H476.5z"/>
			<path class="st3" d="M483.7,178.8c0-1.9,1.6-3.5,3.7-3.5c2.1,0,3.7,1.6,3.7,3.5c0,2.1-1.6,3.7-3.7,3.7
				C485.4,182.4,483.7,180.8,483.7,178.8z M484.9,190.6h5v37.3h-5V190.6z"/>
			<path class="st3" d="M501.4,209.2c0-11.1,8.1-18.9,19-18.9c10.9,0,18.9,7.9,18.9,18.9s-8,19-18.9,19
				C509.5,228.2,501.4,220.3,501.4,209.2z M534.3,209.2c0-8.7-5.9-14.5-13.8-14.5s-13.9,5.8-13.9,14.5s6,14.5,13.9,14.5
				S534.3,218,534.3,209.2z"/>
			<path class="st3" d="M569.7,190.3v4.9c-0.4,0-0.8-0.1-1.2-0.1c-7.8,0-12.5,5-12.5,13.8v19h-5v-37.3h4.8v7.3
				C558.1,192.9,562.8,190.3,569.7,190.3z"/>
			<path class="st3" d="M608.1,204.8v23.1h-4.8v-5.8c-2.3,3.8-6.7,6.2-12.8,6.2c-8.4,0-13.6-4.4-13.6-10.8c0-5.7,3.7-10.6,14.4-10.6
				h11.8v-2.3c0-6.4-3.6-9.9-10.6-9.9c-4.8,0-9.4,1.7-12.4,4.4l-2.3-3.8c3.8-3.2,9.3-5,15.2-5C602.6,190.3,608.1,195.1,608.1,204.8z
				 M603.1,216.7v-6.1h-11.7c-7.2,0-9.6,2.8-9.6,6.7c0,4.3,3.5,7,9.4,7C596.9,224.3,601.1,221.6,603.1,216.7z"/>
			<path class="st3" d="M623.1,175.3h5v52.6h-5V175.3z"/>
			<path class="st3" d="M705.8,178.3v49.6h-5.2V205h-31.1v22.9h-5.2v-49.6h5.2v22.1h31.1v-22.1H705.8z"/>
			<path class="st3" d="M754.6,210.8h-31.2c0.6,7.8,6.5,13,14.7,13c4.5,0,8.6-1.6,11.4-4.9l2.8,3.3c-3.3,4-8.5,6.1-14.4,6.1
				c-11.6,0-19.6-7.9-19.6-19s7.7-18.9,18.2-18.9c10.5,0,18.1,7.7,18.1,18.9C754.7,209.7,754.6,210.2,754.6,210.8z M723.4,207h26.4
				c-0.6-7.3-6-12.4-13.3-12.4C729.4,194.6,724,199.7,723.4,207z"/>
			<path class="st3" d="M793.3,204.8v23.1h-4.8v-5.8c-2.3,3.8-6.7,6.2-12.8,6.2c-8.4,0-13.6-4.4-13.6-10.8c0-5.7,3.7-10.6,14.4-10.6
				h11.8v-2.3c0-6.4-3.6-9.9-10.6-9.9c-4.8,0-9.4,1.7-12.4,4.4l-2.3-3.8c3.8-3.2,9.3-5,15.2-5C787.8,190.3,793.3,195.1,793.3,204.8z
				 M788.2,216.7v-6.1h-11.7c-7.2,0-9.6,2.8-9.6,6.7c0,4.3,3.5,7,9.4,7C782.1,224.3,786.3,221.6,788.2,216.7z"/>
			<path class="st3" d="M808.2,175.3h5v52.6h-5V175.3z"/>
			<path class="st3" d="M848.3,225.6c-2,1.8-5,2.6-7.9,2.6c-7,0-10.9-4-10.9-10.8v-22.5h-6.7v-4.3h6.7v-8.2h5v8.2h11.3v4.3h-11.3
				v22.3c0,4.4,2.3,6.8,6.4,6.8c2.1,0,4.1-0.6,5.5-1.9L848.3,225.6z"/>
			<path class="st3" d="M893.1,206.3v21.6h-5v-21.1c0-7.9-4.1-11.9-11.2-11.9c-8,0-13,5-13,13.5v19.6h-5v-52.6h5v21.8
				c2.8-4.3,7.7-6.8,14-6.8C886.8,190.3,893.1,195.6,893.1,206.3z"/>
		</g>
	</g>
</g>
<g id="xtra">
</g>
</svg>
